<svg id="Group_4739" data-name="Group 4739" xmlns="http://www.w3.org/2000/svg" width="24.787" height="23.484" viewBox="0 0 24.787 23.484">
  <g id="Group_4715" data-name="Group 4715">
    <g id="Group_4732" data-name="Group 4732">
      <path id="Icon_awesome-globe" data-name="Icon awesome-globe" d="M13.625,6.586C13.038,3.047,11.653.563,10.042.563s-3,2.485-3.583,6.023Zm-7.471,3.8a24.311,24.311,0,0,0,.134,2.536h7.5a24.312,24.312,0,0,0,.134-2.536,24.312,24.312,0,0,0-.134-2.536h-7.5A24.311,24.311,0,0,0,6.155,10.39ZM19.3,6.586A9.991,9.991,0,0,0,12.9.975a13.193,13.193,0,0,1,2.025,5.611ZM7.175.975A9.984,9.984,0,0,0,.781,6.586H5.155A13.14,13.14,0,0,1,7.175.975Zm12.56,6.879H15.091a25.027,25.027,0,0,1,.134,2.536,25.027,25.027,0,0,1-.134,2.536h4.64a9.548,9.548,0,0,0,.348-2.536A9.714,9.714,0,0,0,19.735,7.854ZM4.859,10.39a25.026,25.026,0,0,1,.134-2.536H.348a9.409,9.409,0,0,0,0,5.072h4.64C4.908,12.094,4.859,11.242,4.859,10.39Zm1.6,3.8c.587,3.539,1.972,6.023,3.583,6.023s3-2.485,3.583-6.023Zm6.45,5.611a10,10,0,0,0,6.4-5.611H14.933A13.193,13.193,0,0,1,12.909,19.8ZM.781,14.194a9.991,9.991,0,0,0,6.4,5.611,13.193,13.193,0,0,1-2.025-5.611H.781Z" transform="translate(0 -0.563)" fill="#637381"/>
      <path id="Path_797" data-name="Path 797" d="M6.637,0a6.474,6.474,0,0,1,6.6,6.4A6.572,6.572,0,0,1,6.6,12.849,6.474,6.474,0,0,1,0,6.445,6.572,6.572,0,0,1,6.637,0Z" transform="matrix(0.995, 0.105, -0.105, 0.995, 10.16, 7.689)" fill="#fff"/>
      <g id="Icon_feather-search" data-name="Icon feather-search" transform="translate(9.533 8.662)">
        <path id="Path_795" data-name="Path 795" d="M17.443,10.756a6.367,6.367,0,0,1-6.472,6.256A6.367,6.367,0,0,1,4.5,10.756,6.367,6.367,0,0,1,10.972,4.5,6.367,6.367,0,0,1,17.443,10.756Z" transform="translate(-4.5 -4.5)" fill="none" stroke="#c1c7cd" stroke-linecap="round" stroke-linejoin="round" stroke-width="1"/>
        <path id="Path_796" data-name="Path 796" d="M28.461,28.461l-3.486-3.486" transform="translate(-13.915 -14.346)" fill="none" stroke="#c1c7cd" stroke-linecap="round" stroke-linejoin="round" stroke-width="1"/>
      </g>
    </g>
  </g>
</svg>
