<svg xmlns="http://www.w3.org/2000/svg" width="14.475" height="14.475" viewBox="0 0 14.475 14.475">
  <path id="Icon_ionic-md-call" data-name="Icon ionic-md-call" d="M18.17,14.552a9.438,9.438,0,0,1-2.855-.442.752.752,0,0,0-.8.2L12.742,16.08a12.093,12.093,0,0,1-5.307-5.307L9.2,9a.838.838,0,0,0,.2-.8,8.745,8.745,0,0,1-.483-2.9.807.807,0,0,0-.8-.8H5.3a.807.807,0,0,0-.8.8,13.659,13.659,0,0,0,13.67,13.67.807.807,0,0,0,.8-.8V15.356A.807.807,0,0,0,18.17,14.552Z" transform="translate(-4.5 -4.5)" fill="#637381"/>
</svg>
