<svg id="Group_4740" data-name="Group 4740" xmlns="http://www.w3.org/2000/svg" width="21.045" height="21.049" viewBox="0 0 21.045 21.049">
  <g id="Group_4711" data-name="Group 4711">
    <path id="Icon_awesome-wpforms" data-name="Icon awesome-wpforms" d="M21.044,4.279V21.27A2.006,2.006,0,0,1,19.015,23.3H2.029A2.013,2.013,0,0,1,0,21.265V4.279A2.006,2.006,0,0,1,2.029,2.25H19.02A2.005,2.005,0,0,1,21.044,4.279ZM19.292,21.265V4.279a.279.279,0,0,0-.272-.272h-.437L13.4,7.511l-2.88-2.344L7.647,7.511,2.466,4H2.029a.279.279,0,0,0-.272.272V21.265a.279.279,0,0,0,.272.272H19.02a.273.273,0,0,0,.272-.272ZM7.056,9.484v1.738H3.6V9.484Zm0,3.495v1.752H3.6V12.979ZM7.577,6.06l2.537-2.053H4.547L7.577,6.06Zm9.865,3.424v1.738H8.235V9.484Zm0,3.495v1.752H8.235V12.979ZM13.467,6.06,16.5,4.007H10.936L13.467,6.06Zm3.974,10.424v1.752H12.772V16.483h4.669Z" transform="translate(0 -2.25)" fill="#637381"/>
  </g>
</svg>
